%TF.GenerationSoftware,KiCad,Pcbnew,8.0.7*%
%TF.CreationDate,2025-01-11T15:19:25-09:00*%
%TF.ProjectId,wearable_battery_board,77656172-6162-46c6-955f-626174746572,rev?*%
%TF.SameCoordinates,Original*%
%TF.FileFunction,Paste,Top*%
%TF.FilePolarity,Positive*%
%FSLAX46Y46*%
G04 Gerber Fmt 4.6, Leading zero omitted, Abs format (unit mm)*
G04 Created by KiCad (PCBNEW 8.0.7) date 2025-01-11 15:19:25*
%MOMM*%
%LPD*%
G01*
G04 APERTURE LIST*
G04 Aperture macros list*
%AMRoundRect*
0 Rectangle with rounded corners*
0 $1 Rounding radius*
0 $2 $3 $4 $5 $6 $7 $8 $9 X,Y pos of 4 corners*
0 Add a 4 corners polygon primitive as box body*
4,1,4,$2,$3,$4,$5,$6,$7,$8,$9,$2,$3,0*
0 Add four circle primitives for the rounded corners*
1,1,$1+$1,$2,$3*
1,1,$1+$1,$4,$5*
1,1,$1+$1,$6,$7*
1,1,$1+$1,$8,$9*
0 Add four rect primitives between the rounded corners*
20,1,$1+$1,$2,$3,$4,$5,0*
20,1,$1+$1,$4,$5,$6,$7,0*
20,1,$1+$1,$6,$7,$8,$9,0*
20,1,$1+$1,$8,$9,$2,$3,0*%
G04 Aperture macros list end*
%ADD10RoundRect,0.250000X-0.275000X0.312500X-0.275000X-0.312500X0.275000X-0.312500X0.275000X0.312500X0*%
%ADD11RoundRect,0.200000X-0.200000X-0.275000X0.200000X-0.275000X0.200000X0.275000X-0.200000X0.275000X0*%
%ADD12RoundRect,0.200000X-0.275000X0.200000X-0.275000X-0.200000X0.275000X-0.200000X0.275000X0.200000X0*%
%ADD13RoundRect,0.218750X-0.218750X-0.256250X0.218750X-0.256250X0.218750X0.256250X-0.218750X0.256250X0*%
%ADD14RoundRect,0.150000X0.512500X0.150000X-0.512500X0.150000X-0.512500X-0.150000X0.512500X-0.150000X0*%
%ADD15R,0.711200X1.498600*%
%ADD16R,0.990600X0.812800*%
%ADD17RoundRect,0.150000X-0.512500X-0.150000X0.512500X-0.150000X0.512500X0.150000X-0.512500X0.150000X0*%
%ADD18RoundRect,0.200000X0.275000X-0.200000X0.275000X0.200000X-0.275000X0.200000X-0.275000X-0.200000X0*%
%ADD19RoundRect,0.150000X0.150000X-0.512500X0.150000X0.512500X-0.150000X0.512500X-0.150000X-0.512500X0*%
%ADD20RoundRect,0.225000X0.225000X0.375000X-0.225000X0.375000X-0.225000X-0.375000X0.225000X-0.375000X0*%
%ADD21RoundRect,0.225000X-0.250000X0.225000X-0.250000X-0.225000X0.250000X-0.225000X0.250000X0.225000X0*%
%ADD22RoundRect,0.250000X-0.300000X0.300000X-0.300000X-0.300000X0.300000X-0.300000X0.300000X0.300000X0*%
G04 APERTURE END LIST*
D10*
%TO.C,C1*%
X144830800Y-83084900D03*
X144830800Y-84859900D03*
%TD*%
D11*
%TO.C,R1*%
X144361400Y-81280000D03*
X146011400Y-81280000D03*
%TD*%
D12*
%TO.C,R5*%
X146456400Y-82995000D03*
X146456400Y-84645000D03*
%TD*%
D10*
%TO.C,C5*%
X159969200Y-80646500D03*
X159969200Y-82421500D03*
%TD*%
D13*
%TO.C,D2*%
X144398900Y-79654400D03*
X145973900Y-79654400D03*
%TD*%
D14*
%TO.C,U1*%
X143510000Y-77861200D03*
X143510000Y-76911200D03*
X143510000Y-75961200D03*
X141235000Y-75961200D03*
X141235000Y-77861200D03*
%TD*%
D15*
%TO.C,SW1*%
X150810397Y-83141400D03*
X153810400Y-83141400D03*
X155310400Y-83141400D03*
D16*
X149410400Y-83841401D03*
X149410420Y-85941399D03*
X156710380Y-85941399D03*
X156710400Y-83841401D03*
%TD*%
D17*
%TO.C,U2*%
X154310500Y-79364800D03*
X154310500Y-80314800D03*
X154310500Y-81264800D03*
X156585500Y-81264800D03*
X156585500Y-79364800D03*
%TD*%
D18*
%TO.C,R6*%
X147929600Y-85356200D03*
X147929600Y-83706200D03*
%TD*%
D19*
%TO.C,Q1*%
X148148000Y-78353500D03*
X150048000Y-78353500D03*
X149098000Y-76078500D03*
%TD*%
D20*
%TO.C,D3*%
X150951200Y-80721200D03*
X147651200Y-80721200D03*
%TD*%
D21*
%TO.C,C3*%
X152552400Y-79387400D03*
X152552400Y-80937400D03*
%TD*%
%TO.C,C4*%
X158292800Y-80555800D03*
X158292800Y-82105800D03*
%TD*%
D12*
%TO.C,R2*%
X142544800Y-79540600D03*
X142544800Y-81190600D03*
%TD*%
D10*
%TO.C,C2*%
X145948400Y-75972900D03*
X145948400Y-77747900D03*
%TD*%
D22*
%TO.C,D1*%
X142798800Y-82877200D03*
X142798800Y-85677200D03*
%TD*%
M02*
