%TF.GenerationSoftware,KiCad,Pcbnew,8.0.7*%
%TF.CreationDate,2025-01-11T15:19:25-09:00*%
%TF.ProjectId,wearable_battery_board,77656172-6162-46c6-955f-626174746572,rev?*%
%TF.SameCoordinates,Original*%
%TF.FileFunction,Copper,L1,Top*%
%TF.FilePolarity,Positive*%
%FSLAX46Y46*%
G04 Gerber Fmt 4.6, Leading zero omitted, Abs format (unit mm)*
G04 Created by KiCad (PCBNEW 8.0.7) date 2025-01-11 15:19:25*
%MOMM*%
%LPD*%
G01*
G04 APERTURE LIST*
G04 Aperture macros list*
%AMRoundRect*
0 Rectangle with rounded corners*
0 $1 Rounding radius*
0 $2 $3 $4 $5 $6 $7 $8 $9 X,Y pos of 4 corners*
0 Add a 4 corners polygon primitive as box body*
4,1,4,$2,$3,$4,$5,$6,$7,$8,$9,$2,$3,0*
0 Add four circle primitives for the rounded corners*
1,1,$1+$1,$2,$3*
1,1,$1+$1,$4,$5*
1,1,$1+$1,$6,$7*
1,1,$1+$1,$8,$9*
0 Add four rect primitives between the rounded corners*
20,1,$1+$1,$2,$3,$4,$5,0*
20,1,$1+$1,$4,$5,$6,$7,0*
20,1,$1+$1,$6,$7,$8,$9,0*
20,1,$1+$1,$8,$9,$2,$3,0*%
G04 Aperture macros list end*
%TA.AperFunction,SMDPad,CuDef*%
%ADD10R,2.000000X2.000000*%
%TD*%
%TA.AperFunction,SMDPad,CuDef*%
%ADD11RoundRect,0.250000X-0.275000X0.312500X-0.275000X-0.312500X0.275000X-0.312500X0.275000X0.312500X0*%
%TD*%
%TA.AperFunction,SMDPad,CuDef*%
%ADD12RoundRect,0.200000X-0.200000X-0.275000X0.200000X-0.275000X0.200000X0.275000X-0.200000X0.275000X0*%
%TD*%
%TA.AperFunction,SMDPad,CuDef*%
%ADD13RoundRect,0.200000X-0.275000X0.200000X-0.275000X-0.200000X0.275000X-0.200000X0.275000X0.200000X0*%
%TD*%
%TA.AperFunction,SMDPad,CuDef*%
%ADD14RoundRect,0.218750X-0.218750X-0.256250X0.218750X-0.256250X0.218750X0.256250X-0.218750X0.256250X0*%
%TD*%
%TA.AperFunction,SMDPad,CuDef*%
%ADD15RoundRect,0.150000X0.512500X0.150000X-0.512500X0.150000X-0.512500X-0.150000X0.512500X-0.150000X0*%
%TD*%
%TA.AperFunction,SMDPad,CuDef*%
%ADD16R,0.711200X1.498600*%
%TD*%
%TA.AperFunction,SMDPad,CuDef*%
%ADD17R,0.990600X0.812800*%
%TD*%
%TA.AperFunction,SMDPad,CuDef*%
%ADD18RoundRect,0.150000X-0.512500X-0.150000X0.512500X-0.150000X0.512500X0.150000X-0.512500X0.150000X0*%
%TD*%
%TA.AperFunction,SMDPad,CuDef*%
%ADD19RoundRect,0.200000X0.275000X-0.200000X0.275000X0.200000X-0.275000X0.200000X-0.275000X-0.200000X0*%
%TD*%
%TA.AperFunction,SMDPad,CuDef*%
%ADD20RoundRect,0.150000X0.150000X-0.512500X0.150000X0.512500X-0.150000X0.512500X-0.150000X-0.512500X0*%
%TD*%
%TA.AperFunction,SMDPad,CuDef*%
%ADD21RoundRect,0.225000X0.225000X0.375000X-0.225000X0.375000X-0.225000X-0.375000X0.225000X-0.375000X0*%
%TD*%
%TA.AperFunction,SMDPad,CuDef*%
%ADD22RoundRect,0.225000X-0.250000X0.225000X-0.250000X-0.225000X0.250000X-0.225000X0.250000X0.225000X0*%
%TD*%
%TA.AperFunction,SMDPad,CuDef*%
%ADD23RoundRect,0.250000X-0.300000X0.300000X-0.300000X-0.300000X0.300000X-0.300000X0.300000X0.300000X0*%
%TD*%
%TA.AperFunction,ViaPad*%
%ADD24C,0.800000*%
%TD*%
%TA.AperFunction,Conductor*%
%ADD25C,0.600000*%
%TD*%
%TA.AperFunction,Conductor*%
%ADD26C,1.000000*%
%TD*%
%TA.AperFunction,Conductor*%
%ADD27C,0.800000*%
%TD*%
%TA.AperFunction,Conductor*%
%ADD28C,0.400000*%
%TD*%
G04 APERTURE END LIST*
D10*
%TO.P,TP3,1,1*%
%TO.N,Net-(Q1-D)*%
X152603200Y-76657200D03*
%TD*%
D11*
%TO.P,C1,1*%
%TO.N,MAIN+*%
X144830800Y-83084900D03*
%TO.P,C1,2*%
%TO.N,GND*%
X144830800Y-84859900D03*
%TD*%
D12*
%TO.P,R1,1*%
%TO.N,MAIN+*%
X144361400Y-81280000D03*
%TO.P,R1,2*%
%TO.N,Net-(D2-A)*%
X146011400Y-81280000D03*
%TD*%
D13*
%TO.P,R5,1*%
%TO.N,MAIN+*%
X146456400Y-82995000D03*
%TO.P,R5,2*%
%TO.N,GND*%
X146456400Y-84645000D03*
%TD*%
D11*
%TO.P,C5,1*%
%TO.N,+3.3V*%
X159969200Y-80646500D03*
%TO.P,C5,2*%
%TO.N,GND*%
X159969200Y-82421500D03*
%TD*%
D14*
%TO.P,D2,1,K*%
%TO.N,Net-(D2-K)*%
X144398900Y-79654400D03*
%TO.P,D2,2,A*%
%TO.N,Net-(D2-A)*%
X145973900Y-79654400D03*
%TD*%
D10*
%TO.P,TP4,1,1*%
%TO.N,GND*%
X156030000Y-76660000D03*
%TD*%
D15*
%TO.P,U1,1,STAT*%
%TO.N,Net-(D2-K)*%
X143510000Y-77861200D03*
%TO.P,U1,2,VSS*%
%TO.N,GND*%
X143510000Y-76911200D03*
%TO.P,U1,3,VBAT*%
%TO.N,Net-(Q1-D)*%
X143510000Y-75961200D03*
%TO.P,U1,4,VDD*%
%TO.N,MAIN+*%
X141235000Y-75961200D03*
%TO.P,U1,5,PROG*%
%TO.N,Net-(U1-PROG)*%
X141235000Y-77861200D03*
%TD*%
D16*
%TO.P,SW1,1,A*%
%TO.N,Net-(SW1-A)*%
X150810397Y-83141400D03*
%TO.P,SW1,2,B*%
X153810400Y-83141400D03*
%TO.P,SW1,3,C*%
%TO.N,Net-(D3-K)*%
X155310400Y-83141400D03*
D17*
%TO.P,SW1,4,GND*%
%TO.N,GND*%
X149410400Y-83841401D03*
X149410420Y-85941399D03*
X156710380Y-85941399D03*
X156710400Y-83841401D03*
%TD*%
D18*
%TO.P,U2,1,VIN*%
%TO.N,Net-(D3-K)*%
X154310500Y-79364800D03*
%TO.P,U2,2,GND*%
%TO.N,GND*%
X154310500Y-80314800D03*
%TO.P,U2,3,EN*%
%TO.N,Net-(SW1-A)*%
X154310500Y-81264800D03*
%TO.P,U2,4,NC*%
%TO.N,unconnected-(U2-NC-Pad4)*%
X156585500Y-81264800D03*
%TO.P,U2,5,VOUT*%
%TO.N,+3.3V*%
X156585500Y-79364800D03*
%TD*%
D19*
%TO.P,R6,1*%
%TO.N,GND*%
X147929600Y-85356200D03*
%TO.P,R6,2*%
%TO.N,Net-(SW1-A)*%
X147929600Y-83706200D03*
%TD*%
D20*
%TO.P,Q1,1,G*%
%TO.N,MAIN+*%
X148148000Y-78353500D03*
%TO.P,Q1,2,S*%
%TO.N,Net-(D3-K)*%
X150048000Y-78353500D03*
%TO.P,Q1,3,D*%
%TO.N,Net-(Q1-D)*%
X149098000Y-76078500D03*
%TD*%
D10*
%TO.P,TP2,1,1*%
%TO.N,GND*%
X139903200Y-84937600D03*
%TD*%
D21*
%TO.P,D3,1,K*%
%TO.N,Net-(D3-K)*%
X150951200Y-80721200D03*
%TO.P,D3,2,A*%
%TO.N,MAIN+*%
X147651200Y-80721200D03*
%TD*%
D22*
%TO.P,C3,1*%
%TO.N,Net-(D3-K)*%
X152552400Y-79387400D03*
%TO.P,C3,2*%
%TO.N,GND*%
X152552400Y-80937400D03*
%TD*%
D10*
%TO.P,TP6,1,1*%
%TO.N,GND*%
X159410400Y-84988400D03*
%TD*%
D22*
%TO.P,C4,1*%
%TO.N,+3.3V*%
X158292800Y-80555800D03*
%TO.P,C4,2*%
%TO.N,GND*%
X158292800Y-82105800D03*
%TD*%
D13*
%TO.P,R2,1*%
%TO.N,Net-(U1-PROG)*%
X142544800Y-79540600D03*
%TO.P,R2,2*%
%TO.N,GND*%
X142544800Y-81190600D03*
%TD*%
D11*
%TO.P,C2,1*%
%TO.N,Net-(Q1-D)*%
X145948400Y-75972900D03*
%TO.P,C2,2*%
%TO.N,GND*%
X145948400Y-77747900D03*
%TD*%
D10*
%TO.P,TP5,1,1*%
%TO.N,+3.3V*%
X159430000Y-77870000D03*
%TD*%
%TO.P,TP1,1,1*%
%TO.N,MAIN+*%
X139903200Y-80822800D03*
%TD*%
D23*
%TO.P,D1,1,K*%
%TO.N,MAIN+*%
X142798800Y-82877200D03*
%TO.P,D1,2,A*%
%TO.N,GND*%
X142798800Y-85677200D03*
%TD*%
D24*
%TO.N,GND*%
X139320000Y-85520000D03*
X156718000Y-84886800D03*
X149402800Y-84886800D03*
X140490000Y-85520000D03*
X158840000Y-85590000D03*
X156620000Y-77250000D03*
X158840000Y-84410000D03*
X143205200Y-81229200D03*
X155440000Y-77250000D03*
X156620000Y-76070000D03*
X146456400Y-85445600D03*
X160020000Y-84410000D03*
X145948400Y-78486000D03*
X152552400Y-81584800D03*
X140490000Y-84350000D03*
X160020000Y-85590000D03*
X139310000Y-84350000D03*
X155440000Y-76070000D03*
%TD*%
D25*
%TO.N,GND*%
X152996600Y-80937400D02*
X152552400Y-80937400D01*
D26*
X159969200Y-82421500D02*
X159969200Y-84429600D01*
X159969200Y-84429600D02*
X159410400Y-84988400D01*
D25*
X152552400Y-81584800D02*
X152552400Y-80937400D01*
D27*
X142798800Y-85677200D02*
X144013500Y-85677200D01*
D28*
X156710380Y-85941399D02*
X156710380Y-84894420D01*
D26*
X159969200Y-82421500D02*
X158608500Y-82421500D01*
D28*
X149410420Y-84894420D02*
X149402800Y-84886800D01*
D27*
X147929600Y-85356200D02*
X147167600Y-85356200D01*
D28*
X149410400Y-83841401D02*
X149410400Y-84879200D01*
D25*
X153619200Y-80314800D02*
X152996600Y-80937400D01*
D27*
X144830800Y-84859900D02*
X146241500Y-84859900D01*
X147167600Y-85356200D02*
X146456400Y-84645000D01*
D25*
X145565900Y-77747900D02*
X145948400Y-77747900D01*
D27*
X140512800Y-85547200D02*
X139903200Y-84937600D01*
D26*
X158608500Y-82421500D02*
X158292800Y-82105800D01*
D28*
X149410400Y-84879200D02*
X149402800Y-84886800D01*
X149410420Y-85941399D02*
X149410420Y-84894420D01*
X156710400Y-84879200D02*
X156718000Y-84886800D01*
D25*
X144729200Y-76911200D02*
X145565900Y-77747900D01*
D27*
X146456400Y-85445600D02*
X146456400Y-84645000D01*
X144013500Y-85677200D02*
X144830800Y-84859900D01*
X146241500Y-84859900D02*
X146456400Y-84645000D01*
D25*
X143510000Y-76911200D02*
X144729200Y-76911200D01*
X143166600Y-81190600D02*
X142544800Y-81190600D01*
X145948400Y-78486000D02*
X145948400Y-77747900D01*
D28*
X156710380Y-84894420D02*
X156718000Y-84886800D01*
X156710400Y-83841401D02*
X156710400Y-84879200D01*
D25*
X143205200Y-81229200D02*
X143166600Y-81190600D01*
X154310500Y-80314800D02*
X153619200Y-80314800D01*
D27*
X142465600Y-85598000D02*
X142414800Y-85547200D01*
X142414800Y-85547200D02*
X140512800Y-85547200D01*
D26*
%TO.N,Net-(Q1-D)*%
X149098000Y-76078500D02*
X149186500Y-75990000D01*
X149098000Y-76078500D02*
X148992400Y-75972900D01*
X148992400Y-75972900D02*
X145956400Y-75972900D01*
D27*
X143510000Y-75961200D02*
X143521700Y-75972900D01*
X143521700Y-75972900D02*
X145948400Y-75972900D01*
D26*
X151936000Y-75990000D02*
X152603200Y-76657200D01*
X149186500Y-75990000D02*
X151936000Y-75990000D01*
D27*
%TO.N,Net-(D3-K)*%
X152552400Y-79387400D02*
X151600200Y-79387400D01*
D28*
X155448000Y-83003800D02*
X155448000Y-79797901D01*
D27*
X154310500Y-79364800D02*
X152575000Y-79364800D01*
D26*
X150951200Y-80085200D02*
X150951200Y-80721200D01*
D28*
X155014899Y-79364800D02*
X154310500Y-79364800D01*
D26*
X150048000Y-78353500D02*
X150048000Y-79182000D01*
D28*
X155448000Y-79797901D02*
X155014899Y-79364800D01*
D27*
X151600200Y-79387400D02*
X150951200Y-80036400D01*
X150951200Y-80036400D02*
X150951200Y-80721200D01*
D26*
X150048000Y-79182000D02*
X150951200Y-80085200D01*
%TO.N,+3.3V*%
X159918400Y-80595700D02*
X159918400Y-78358400D01*
X159969200Y-80646500D02*
X159918400Y-80595700D01*
X156585500Y-79364800D02*
X156885600Y-79364800D01*
X159918400Y-78358400D02*
X159430000Y-77870000D01*
X156885600Y-79364800D02*
X158076600Y-80555800D01*
X158292800Y-80555800D02*
X159878500Y-80555800D01*
X159878500Y-80555800D02*
X159969200Y-80646500D01*
X158076600Y-80555800D02*
X158292800Y-80555800D01*
D25*
%TO.N,Net-(D2-K)*%
X144002800Y-77861200D02*
X143510000Y-77861200D01*
X144398900Y-79654400D02*
X144398900Y-78257300D01*
X144398900Y-78257300D02*
X144002800Y-77861200D01*
%TO.N,Net-(D2-A)*%
X146011400Y-81280000D02*
X146011400Y-79691900D01*
%TO.N,Net-(U1-PROG)*%
X141579600Y-78575400D02*
X142544800Y-79540600D01*
X141564400Y-77861200D02*
X141579600Y-77876400D01*
X141579600Y-77876400D02*
X141579600Y-78575400D01*
D26*
%TO.N,MAIN+*%
X140396000Y-75961200D02*
X139446000Y-76911200D01*
X148148000Y-79182000D02*
X147651200Y-79678800D01*
X146366500Y-83084900D02*
X146456400Y-82995000D01*
X139446000Y-76911200D02*
X139446000Y-80264000D01*
X141235000Y-75961200D02*
X140396000Y-75961200D01*
X148148000Y-78353500D02*
X148148000Y-79182000D01*
X139903200Y-81127600D02*
X141652800Y-82877200D01*
X146456400Y-82905600D02*
X146456400Y-82995000D01*
X142798800Y-82877200D02*
X142979600Y-83058000D01*
X141652800Y-82877200D02*
X142798800Y-82877200D01*
X144803900Y-83058000D02*
X144830800Y-83084900D01*
D25*
X144373600Y-81292200D02*
X144373600Y-83007200D01*
D26*
X144830800Y-83084900D02*
X146366500Y-83084900D01*
X147651200Y-79678800D02*
X147651200Y-80721200D01*
X147651200Y-81710800D02*
X146456400Y-82905600D01*
X139446000Y-80264000D02*
X139852400Y-80670400D01*
X142979600Y-83058000D02*
X144803900Y-83058000D01*
X147651200Y-80721200D02*
X147651200Y-81710800D01*
D28*
%TO.N,Net-(SW1-A)*%
X153810400Y-83141400D02*
X153810400Y-81546000D01*
X153810400Y-81546000D02*
X153990000Y-81366400D01*
X147929600Y-83464400D02*
X147929600Y-83706200D01*
X148793200Y-82600800D02*
X147929600Y-83464400D01*
X150810397Y-82600800D02*
X148793200Y-82600800D01*
X153810400Y-83141400D02*
X150810397Y-83141400D01*
%TD*%
M02*
