%TF.GenerationSoftware,KiCad,Pcbnew,8.0.7*%
%TF.CreationDate,2025-01-11T15:19:25-09:00*%
%TF.ProjectId,wearable_battery_board,77656172-6162-46c6-955f-626174746572,rev?*%
%TF.SameCoordinates,Original*%
%TF.FileFunction,Copper,L2,Bot*%
%TF.FilePolarity,Positive*%
%FSLAX46Y46*%
G04 Gerber Fmt 4.6, Leading zero omitted, Abs format (unit mm)*
G04 Created by KiCad (PCBNEW 8.0.7) date 2025-01-11 15:19:25*
%MOMM*%
%LPD*%
G01*
G04 APERTURE LIST*
%TA.AperFunction,ViaPad*%
%ADD10C,0.800000*%
%TD*%
G04 APERTURE END LIST*
D10*
%TO.N,GND*%
X139320000Y-85520000D03*
X156718000Y-84886800D03*
X149402800Y-84886800D03*
X140490000Y-85520000D03*
X158840000Y-85590000D03*
X156620000Y-77250000D03*
X158840000Y-84410000D03*
X143205200Y-81229200D03*
X155440000Y-77250000D03*
X156620000Y-76070000D03*
X146456400Y-85445600D03*
X160020000Y-84410000D03*
X145948400Y-78486000D03*
X152552400Y-81584800D03*
X140490000Y-84350000D03*
X160020000Y-85590000D03*
X139310000Y-84350000D03*
X155440000Y-76070000D03*
%TD*%
%TA.AperFunction,Conductor*%
%TO.N,GND*%
G36*
X161029839Y-74898885D02*
G01*
X161075594Y-74951689D01*
X161086800Y-75003200D01*
X161086800Y-86567800D01*
X161067115Y-86634839D01*
X161014311Y-86680594D01*
X160962800Y-86691800D01*
X138391279Y-86691800D01*
X138324240Y-86672115D01*
X138278485Y-86619311D01*
X138267279Y-86567669D01*
X138268324Y-85579517D01*
X138269131Y-84815842D01*
X150840000Y-84815842D01*
X150840000Y-84957757D01*
X150867682Y-85096925D01*
X150867684Y-85096933D01*
X150921988Y-85228033D01*
X150921993Y-85228043D01*
X151000828Y-85346027D01*
X151000831Y-85346031D01*
X151101168Y-85446368D01*
X151101172Y-85446371D01*
X151219156Y-85525206D01*
X151219160Y-85525208D01*
X151219163Y-85525210D01*
X151350267Y-85579516D01*
X151489442Y-85607199D01*
X151489446Y-85607200D01*
X151489447Y-85607200D01*
X151631354Y-85607200D01*
X151631355Y-85607199D01*
X151770533Y-85579516D01*
X151901637Y-85525210D01*
X152019628Y-85446371D01*
X152119971Y-85346028D01*
X152198810Y-85228037D01*
X152253116Y-85096933D01*
X152280800Y-84957753D01*
X152280800Y-84815847D01*
X152280799Y-84815842D01*
X153840000Y-84815842D01*
X153840000Y-84957757D01*
X153867682Y-85096925D01*
X153867684Y-85096933D01*
X153921988Y-85228033D01*
X153921993Y-85228043D01*
X154000828Y-85346027D01*
X154000831Y-85346031D01*
X154101168Y-85446368D01*
X154101172Y-85446371D01*
X154219156Y-85525206D01*
X154219160Y-85525208D01*
X154219163Y-85525210D01*
X154350267Y-85579516D01*
X154489442Y-85607199D01*
X154489446Y-85607200D01*
X154489447Y-85607200D01*
X154631354Y-85607200D01*
X154631355Y-85607199D01*
X154770533Y-85579516D01*
X154901637Y-85525210D01*
X155019628Y-85446371D01*
X155119971Y-85346028D01*
X155198810Y-85228037D01*
X155253116Y-85096933D01*
X155280800Y-84957753D01*
X155280800Y-84815847D01*
X155253116Y-84676667D01*
X155198810Y-84545563D01*
X155198808Y-84545560D01*
X155198806Y-84545556D01*
X155119971Y-84427572D01*
X155119968Y-84427568D01*
X155019631Y-84327231D01*
X155019627Y-84327228D01*
X154901643Y-84248393D01*
X154901633Y-84248388D01*
X154770533Y-84194084D01*
X154770525Y-84194082D01*
X154631357Y-84166400D01*
X154631353Y-84166400D01*
X154489447Y-84166400D01*
X154489442Y-84166400D01*
X154350274Y-84194082D01*
X154350266Y-84194084D01*
X154219166Y-84248388D01*
X154219156Y-84248393D01*
X154101172Y-84327228D01*
X154101168Y-84327231D01*
X154000831Y-84427568D01*
X154000828Y-84427572D01*
X153921993Y-84545556D01*
X153921988Y-84545566D01*
X153867684Y-84676666D01*
X153867682Y-84676674D01*
X153840000Y-84815842D01*
X152280799Y-84815842D01*
X152253116Y-84676667D01*
X152198810Y-84545563D01*
X152198808Y-84545560D01*
X152198806Y-84545556D01*
X152119971Y-84427572D01*
X152119968Y-84427568D01*
X152019631Y-84327231D01*
X152019627Y-84327228D01*
X151901643Y-84248393D01*
X151901633Y-84248388D01*
X151770533Y-84194084D01*
X151770525Y-84194082D01*
X151631357Y-84166400D01*
X151631353Y-84166400D01*
X151489447Y-84166400D01*
X151489442Y-84166400D01*
X151350274Y-84194082D01*
X151350266Y-84194084D01*
X151219166Y-84248388D01*
X151219156Y-84248393D01*
X151101172Y-84327228D01*
X151101168Y-84327231D01*
X151000831Y-84427568D01*
X151000828Y-84427572D01*
X150921993Y-84545556D01*
X150921988Y-84545566D01*
X150867684Y-84676666D01*
X150867682Y-84676674D01*
X150840000Y-84815842D01*
X138269131Y-84815842D01*
X138279503Y-75003068D01*
X138299258Y-74936050D01*
X138352111Y-74890351D01*
X138403503Y-74879200D01*
X160962800Y-74879200D01*
X161029839Y-74898885D01*
G37*
%TD.AperFunction*%
%TD*%
M02*
